<?xml version="1.0" standalone="no"?>
<!DOCTYPE svg PUBLIC "-//W3C//DTD SVG 20010904//EN"
 "http://www.w3.org/TR/2001/REC-SVG-20010904/DTD/svg10.dtd">
<svg version="1.0" xmlns="http://www.w3.org/2000/svg"
 width="256.000000pt" height="256.000000pt" viewBox="0 0 256.000000 256.000000"
 preserveAspectRatio="xMidYMid meet">
<metadata>
Created by potrace 1.14, written by Peter Selinger 2001-2017
</metadata>
<g transform="translate(0.000000,256.000000) scale(0.100000,-0.100000)"
fill="#000000" stroke="none">
<path d="M1467 2149 c-27 -43 -550 -1873 -539 -1889 19 -32 131 -62 159 -43
16 11 556 1880 549 1899 -7 18 -60 41 -114 50 -35 5 -42 3 -55 -17z"/>
<path d="M332 1567 l-333 -333 3 -47 3 -46 333 -336 c184 -184 341 -335 349
-335 22 0 123 103 123 125 0 11 -121 140 -287 307 l-287 288 287 288 c158 158
287 294 287 300 0 23 -101 122 -124 122 -14 0 -127 -106 -354 -333z"/>
<path d="M1801 1846 c-28 -30 -51 -61 -51 -68 0 -6 128 -141 285 -298 157
-157 285 -290 285 -295 0 -5 -127 -136 -282 -292 -156 -156 -285 -290 -286
-299 -5 -20 99 -124 123 -124 11 0 156 137 352 332 l333 332 0 51 0 50 -333
333 c-225 225 -339 332 -353 332 -13 0 -42 -22 -73 -54z"/>
</g>
</svg>
